<svg xmlns="http://www.w3.org/2000/svg" width="24" height="24" viewBox="0 0 24 24" fill="none" aria-hidden="true" focusable="false" data-cow-icon="database" data-variant="duotone-solid"><g fill="var(--cow-icon-accent, #688e43)" fill-rule="evenodd"><path d="M12 2C6 2 3 4 3 7V17Q3 22 12 22Q21 22 21 17V7C21 4 18 2 12 2Z"/></g><g fill="currentColor" fill-rule="evenodd"><g fill="none" stroke="currentColor" stroke-width="2" stroke-linecap="round" stroke-linejoin="round"><path d="M12 3C7 3 4 5 4 7V17Q4 21 12 21Q20 21 20 17V7C20 5 17 3 12 3Z"/></g><path d="M4 8Q12 12 20 8V10Q12 14 4 10Z M4 13Q12 17 20 13V15Q12 19 4 15Z"/></g></svg>
