<svg xmlns="http://www.w3.org/2000/svg" width="24" height="24" viewBox="0 0 24 24" fill="none" aria-hidden="true" focusable="false" data-cow-icon="cow-file" data-variant="solid"><g fill="currentColor" fill-rule="evenodd"><path d="M7 2H13Q14.4 2 15.7 3.3L19.7 7.3Q21 8.6 21 10V19Q21 22 18 22H7Q4 22 4 19V5Q4 2 7 2Z M14 4V7Q14 9 16 9H19Z M9.125 18.95L10.025 14.9Q8.225 15.35 8.225 14Q8.225 13.1 10.025 13.1L10.025 11.3Q10.475 10.85 11.375 12.2Q12.275 11.75 13.175 12.2L13.625 10.85Q14.525 11.3 14.525 13.1C14.525 14 16.775 13.55 16.775 15.35Q16.775 17.15 13.625 17.15L12.725 18.95Z"/></g></svg>
