<svg xmlns="http://www.w3.org/2000/svg" width="24" height="24" viewBox="0 0 24 24" fill="none" aria-hidden="true" focusable="false" data-cow-icon="hoofprint" data-variant="solid"><g fill="none" stroke="currentColor" stroke-width="2" stroke-linecap="round" stroke-linejoin="round"><path d="M10 4C6 3 3 11 3 16Q3 20 7 20Q10 20 10 17Z M14 4C18 3 21 11 21 16Q21 20 17 20Q14 20 14 17Z"/></g><g fill="currentColor" fill-rule="evenodd"><path d="M10 4C6 3 3 11 3 16Q3 20 7 20Q10 20 10 17Z M14 4C18 3 21 11 21 16Q21 20 17 20Q14 20 14 17Z"/></g></svg>
