<svg xmlns="http://www.w3.org/2000/svg" width="24" height="24" viewBox="0 0 24 24" fill="none" aria-hidden="true" focusable="false" data-cow-icon="lock" data-variant="solid"><g fill="currentColor" fill-rule="evenodd"><g fill="none" stroke="currentColor" stroke-width="2" stroke-linecap="round" stroke-linejoin="round"><path d="M7 10V7Q7 3 12 3Q17 3 17 7V10"/></g><path d="M7 9H17Q21 9 21 13V18Q21 22 17 22H7Q3 22 3 18V13Q3 9 7 9Z M12 13A1 1 0 0 1 13 14V17A1 1 0 0 1 11 17V14A1 1 0 0 1 12 13Z"/></g></svg>
